{"title":"The Bravados (1958).avi","uid":5876889,"size":843115412,"categoryP":"video","categoryS":"movies","magnet":"?xt=urn:btih:a3e5056fb7a420a5a64c1fba5018181360cbe243&amp;dn=The+Bravados+%281958%29.avi&amp;tr=udp%3A%2F%2Ftracker.openbittorrent.com%3A80&amp;tr=udp%3A%2F%2Fopen.demonii.com%3A1337&amp;tr=udp%3A%2F%2Ftracker.coppersurfer.tk%3A6969&amp;tr=udp%3A%2F%2Fexodus.desync.com%3A6969","seeders":1,"leechers":0,"uploader":null,"files":1,"time":1286671050,"description":"Jim Douglas has been relentlessly pursuing the four outlaws who murdered his wife, but finds them in jail about to be hanged. While he waits to witness their execution, they escape; and the townspeople enlist Douglas' aid to recapture them.\n\nGregory Peck\t\tJim Douglass\nJoan Collins\t\tJosefa Velarde\nStephen Boyd \t\tBill Zachary\nAlbert Salmi\t\tEd Taylor\nHenry Silva\t\tLujan\nLee Van Cleef\t\tAlfonso Parral\nAndrew Duggan\t\tPadre\n\n   Video #0\n      ID : 0\n      Format : AVC\n      Format/Info : Advanced Video Codec\n      Codec ID : H264\n      Duration : 1h 37mn\n      Bit rate : 1 007 Kbps\n      Width : 640 pixels\n      Height : 480 pixels\n      Display aspect ratio : 4:3\n      Frame rate : 29.970 fps\n      Resolution : 24 bits\n      Bits/(Pixel*Frame) : 0.109\n      Stream size : 705 MiB (88%)\n   Audio #1\n      ID : 1\n      Format : MPEG Audio\n      Format version : Version 1\n      Format profile : Layer 3\n      Codec ID : 55\n      Codec ID/Hint : MP3\n      Duration : 1h 37mn\n      Bit rate mode : Constant\n      Bit rate : 128 Kbps\n      Channel(s) : 2 channels\n      Sampling rate : 48.0 KHz\n      Resolution : 16 bits\n      Stream size : 89.6 MiB (11%)\n      Alignment : Aligned on interleaves\n      Interleave, duration : 24 ms (0.72 video frame)\n      Interleave, preload duration : 24 ms\n      Writing library : LAME3.98.2\n","torrent":{"xt":"urn:btih:a3e5056fb7a420a5a64c1fba5018181360cbe243","amp;dn":"The+Bravados+%281958%29.avi","amp;tr":["udp%3A%2F%2Ftracker.openbittorrent.com%3A80","udp%3A%2F%2Fopen.demonii.com%3A1337","udp%3A%2F%2Ftracker.coppersurfer.tk%3A6969","udp%3A%2F%2Fexodus.desync.com%3A6969"],"infoHash":"a3e5056fb7a420a5a64c1fba5018181360cbe243","infoHashBuffer":{"type":"Buffer","data":[163,229,5,111,183,164,32,165,166,76,31,186,80,24,24,19,96,203,226,67]},"announce":[],"urlList":[]}}